<mxfile host="Electron" agent="Mozilla/5.0 (Windows NT 10.0; Win64; x64) AppleWebKit/537.36 (KHTML, like Gecko) draw.io/27.0.9 Chrome/134.0.6998.205 Electron/35.4.0 Safari/537.36" version="27.0.9">
  <diagram name="Page-1" id="hpxur693kV8xR0Y-NAo4">
    <mxGraphModel dx="1042" dy="626" grid="1" gridSize="10" guides="1" tooltips="1" connect="1" arrows="1" fold="1" page="1" pageScale="1" pageWidth="850" pageHeight="1100" math="0" shadow="0">
      <root>
        <mxCell id="0" />
        <mxCell id="1" parent="0" />
        <mxCell id="Z1zFEPfVqrg5pH1W6gXw-1" value="" style="rounded=0;whiteSpace=wrap;html=1;fillColor=none;dashed=1;fontColor=light-dark(#808080,#EDEDED);" parent="1" vertex="1">
          <mxGeometry x="120" y="165" width="120" height="380" as="geometry" />
        </mxCell>
        <mxCell id="Z1zFEPfVqrg5pH1W6gXw-2" value="Source" style="rounded=0;whiteSpace=wrap;html=1;strokeColor=none;" parent="1" vertex="1">
          <mxGeometry x="125" y="140" width="90" height="30" as="geometry" />
        </mxCell>
        <mxCell id="Z1zFEPfVqrg5pH1W6gXw-18" style="edgeStyle=orthogonalEdgeStyle;rounded=0;orthogonalLoop=1;jettySize=auto;html=1;entryX=0;entryY=0.5;entryDx=0;entryDy=0;" parent="1" source="Z1zFEPfVqrg5pH1W6gXw-3" target="Z1zFEPfVqrg5pH1W6gXw-12" edge="1">
          <mxGeometry relative="1" as="geometry" />
        </mxCell>
        <mxCell id="Z1zFEPfVqrg5pH1W6gXw-19" style="edgeStyle=orthogonalEdgeStyle;rounded=0;orthogonalLoop=1;jettySize=auto;html=1;entryX=0;entryY=0.5;entryDx=0;entryDy=0;" parent="1" source="Z1zFEPfVqrg5pH1W6gXw-3" target="Z1zFEPfVqrg5pH1W6gXw-13" edge="1">
          <mxGeometry relative="1" as="geometry" />
        </mxCell>
        <mxCell id="Z1zFEPfVqrg5pH1W6gXw-20" style="edgeStyle=orthogonalEdgeStyle;rounded=0;orthogonalLoop=1;jettySize=auto;html=1;entryX=0;entryY=0.5;entryDx=0;entryDy=0;" parent="1" source="Z1zFEPfVqrg5pH1W6gXw-3" target="Z1zFEPfVqrg5pH1W6gXw-14" edge="1">
          <mxGeometry relative="1" as="geometry" />
        </mxCell>
        <mxCell id="Z1zFEPfVqrg5pH1W6gXw-3" value="&lt;b&gt;CRM&lt;/b&gt;" style="image;aspect=fixed;html=1;points=[];align=center;fontSize=12;image=img/lib/azure2/general/Folder_Blank.svg;" parent="1" vertex="1">
          <mxGeometry x="139.19" y="257.5" width="60.81" height="49.35" as="geometry" />
        </mxCell>
        <mxCell id="Z1zFEPfVqrg5pH1W6gXw-4" value="" style="image;aspect=fixed;html=1;points=[];align=center;fontSize=12;image=img/lib/azure2/general/Files.svg;" parent="1" vertex="1">
          <mxGeometry x="187.57" y="290" width="18.29" height="20" as="geometry" />
        </mxCell>
        <mxCell id="Z1zFEPfVqrg5pH1W6gXw-21" style="edgeStyle=orthogonalEdgeStyle;rounded=0;orthogonalLoop=1;jettySize=auto;html=1;entryX=0;entryY=0.5;entryDx=0;entryDy=0;" parent="1" source="Z1zFEPfVqrg5pH1W6gXw-5" target="Z1zFEPfVqrg5pH1W6gXw-15" edge="1">
          <mxGeometry relative="1" as="geometry" />
        </mxCell>
        <mxCell id="Z1zFEPfVqrg5pH1W6gXw-22" style="edgeStyle=orthogonalEdgeStyle;rounded=0;orthogonalLoop=1;jettySize=auto;html=1;entryX=0;entryY=0.5;entryDx=0;entryDy=0;" parent="1" source="Z1zFEPfVqrg5pH1W6gXw-5" target="Z1zFEPfVqrg5pH1W6gXw-16" edge="1">
          <mxGeometry relative="1" as="geometry" />
        </mxCell>
        <mxCell id="Z1zFEPfVqrg5pH1W6gXw-23" style="edgeStyle=orthogonalEdgeStyle;rounded=0;orthogonalLoop=1;jettySize=auto;html=1;entryX=0;entryY=0.5;entryDx=0;entryDy=0;" parent="1" source="Z1zFEPfVqrg5pH1W6gXw-5" target="Z1zFEPfVqrg5pH1W6gXw-17" edge="1">
          <mxGeometry relative="1" as="geometry" />
        </mxCell>
        <mxCell id="Z1zFEPfVqrg5pH1W6gXw-5" value="&lt;b&gt;ERP&lt;/b&gt;" style="image;aspect=fixed;html=1;points=[];align=center;fontSize=12;image=img/lib/azure2/general/Folder_Blank.svg;" parent="1" vertex="1">
          <mxGeometry x="144.19" y="409.38" width="50.81" height="41.24" as="geometry" />
        </mxCell>
        <mxCell id="Z1zFEPfVqrg5pH1W6gXw-6" value="" style="image;aspect=fixed;html=1;points=[];align=center;fontSize=12;image=img/lib/azure2/general/Files.svg;" parent="1" vertex="1">
          <mxGeometry x="187.57" y="440" width="18.29" height="20" as="geometry" />
        </mxCell>
        <mxCell id="Z1zFEPfVqrg5pH1W6gXw-9" value="" style="rounded=1;whiteSpace=wrap;html=1;dashed=1;fillColor=none;strokeColor=#FFCE9F;" parent="1" vertex="1">
          <mxGeometry x="280" y="190" width="180" height="350" as="geometry" />
        </mxCell>
        <mxCell id="Z1zFEPfVqrg5pH1W6gXw-10" value="&lt;b&gt;Bronze Layer&lt;/b&gt;" style="rounded=1;whiteSpace=wrap;html=1;fillColor=#ffe6cc;strokeColor=#d79b00;" parent="1" vertex="1">
          <mxGeometry x="290" y="160" width="160" height="30" as="geometry" />
        </mxCell>
        <mxCell id="yWOQ8LxlVADgonX8agsK-11" style="edgeStyle=orthogonalEdgeStyle;rounded=0;orthogonalLoop=1;jettySize=auto;html=1;entryX=0;entryY=0.5;entryDx=0;entryDy=0;" parent="1" source="Z1zFEPfVqrg5pH1W6gXw-12" target="yWOQ8LxlVADgonX8agsK-3" edge="1">
          <mxGeometry relative="1" as="geometry" />
        </mxCell>
        <mxCell id="Z1zFEPfVqrg5pH1W6gXw-12" value="&lt;b&gt;crm_cust_info&lt;/b&gt;" style="rounded=1;whiteSpace=wrap;html=1;fillColor=#ffe6cc;strokeColor=#d79b00;" parent="1" vertex="1">
          <mxGeometry x="305" y="265" width="125" height="35" as="geometry" />
        </mxCell>
        <mxCell id="yWOQ8LxlVADgonX8agsK-10" style="edgeStyle=orthogonalEdgeStyle;rounded=0;orthogonalLoop=1;jettySize=auto;html=1;entryX=0;entryY=0.5;entryDx=0;entryDy=0;" parent="1" source="Z1zFEPfVqrg5pH1W6gXw-13" target="yWOQ8LxlVADgonX8agsK-4" edge="1">
          <mxGeometry relative="1" as="geometry" />
        </mxCell>
        <mxCell id="Z1zFEPfVqrg5pH1W6gXw-13" value="&lt;b&gt;crm_sales_details&lt;/b&gt;" style="rounded=1;whiteSpace=wrap;html=1;fillColor=#ffe6cc;strokeColor=#d79b00;" parent="1" vertex="1">
          <mxGeometry x="305" y="222.5" width="125" height="35" as="geometry" />
        </mxCell>
        <mxCell id="yWOQ8LxlVADgonX8agsK-12" style="edgeStyle=orthogonalEdgeStyle;rounded=0;orthogonalLoop=1;jettySize=auto;html=1;" parent="1" source="Z1zFEPfVqrg5pH1W6gXw-14" target="yWOQ8LxlVADgonX8agsK-5" edge="1">
          <mxGeometry relative="1" as="geometry" />
        </mxCell>
        <mxCell id="Z1zFEPfVqrg5pH1W6gXw-14" value="&lt;b&gt;crm_prd_info&lt;/b&gt;" style="rounded=1;whiteSpace=wrap;html=1;fillColor=#ffe6cc;strokeColor=#d79b00;" parent="1" vertex="1">
          <mxGeometry x="305" y="310" width="125" height="35" as="geometry" />
        </mxCell>
        <mxCell id="yWOQ8LxlVADgonX8agsK-14" style="edgeStyle=orthogonalEdgeStyle;rounded=0;orthogonalLoop=1;jettySize=auto;html=1;entryX=0;entryY=0.5;entryDx=0;entryDy=0;" parent="1" source="Z1zFEPfVqrg5pH1W6gXw-15" target="yWOQ8LxlVADgonX8agsK-6" edge="1">
          <mxGeometry relative="1" as="geometry" />
        </mxCell>
        <mxCell id="Z1zFEPfVqrg5pH1W6gXw-15" value="erp_loc_a101" style="rounded=1;whiteSpace=wrap;html=1;fillColor=#ffe6cc;strokeColor=#d79b00;fontStyle=1" parent="1" vertex="1">
          <mxGeometry x="307.5" y="412.5" width="125" height="35" as="geometry" />
        </mxCell>
        <mxCell id="yWOQ8LxlVADgonX8agsK-13" style="edgeStyle=orthogonalEdgeStyle;rounded=0;orthogonalLoop=1;jettySize=auto;html=1;entryX=0;entryY=0.5;entryDx=0;entryDy=0;" parent="1" source="Z1zFEPfVqrg5pH1W6gXw-16" target="yWOQ8LxlVADgonX8agsK-7" edge="1">
          <mxGeometry relative="1" as="geometry" />
        </mxCell>
        <mxCell id="Z1zFEPfVqrg5pH1W6gXw-16" value="erp_cust_az12" style="rounded=1;whiteSpace=wrap;html=1;fillColor=#ffe6cc;strokeColor=#d79b00;fontStyle=1" parent="1" vertex="1">
          <mxGeometry x="307.5" y="370" width="125" height="35" as="geometry" />
        </mxCell>
        <mxCell id="yWOQ8LxlVADgonX8agsK-15" style="edgeStyle=orthogonalEdgeStyle;rounded=0;orthogonalLoop=1;jettySize=auto;html=1;entryX=0;entryY=0.5;entryDx=0;entryDy=0;" parent="1" source="Z1zFEPfVqrg5pH1W6gXw-17" target="yWOQ8LxlVADgonX8agsK-8" edge="1">
          <mxGeometry relative="1" as="geometry" />
        </mxCell>
        <mxCell id="Z1zFEPfVqrg5pH1W6gXw-17" value="erp_px_cat_g1v2" style="rounded=1;whiteSpace=wrap;html=1;fillColor=#ffe6cc;strokeColor=#d79b00;fontStyle=1" parent="1" vertex="1">
          <mxGeometry x="307.5" y="457.5" width="125" height="35" as="geometry" />
        </mxCell>
        <mxCell id="yWOQ8LxlVADgonX8agsK-1" value="" style="rounded=1;whiteSpace=wrap;html=1;dashed=1;fillColor=none;strokeColor=#666666;fontColor=#333333;" parent="1" vertex="1">
          <mxGeometry x="507.5" y="190" width="180" height="350" as="geometry" />
        </mxCell>
        <mxCell id="yWOQ8LxlVADgonX8agsK-2" value="&lt;b&gt;Silver Layer&lt;/b&gt;" style="rounded=1;whiteSpace=wrap;html=1;fillColor=#f5f5f5;strokeColor=#666666;fontColor=#333333;" parent="1" vertex="1">
          <mxGeometry x="517.5" y="160" width="160" height="30" as="geometry" />
        </mxCell>
        <mxCell id="yWOQ8LxlVADgonX8agsK-3" value="&lt;b&gt;crm_cust_info&lt;/b&gt;" style="rounded=1;whiteSpace=wrap;html=1;fillColor=#f5f5f5;strokeColor=#666666;fontColor=#333333;" parent="1" vertex="1">
          <mxGeometry x="535" y="265" width="125" height="35" as="geometry" />
        </mxCell>
        <mxCell id="yWOQ8LxlVADgonX8agsK-4" value="&lt;b&gt;crm_sales_details&lt;/b&gt;" style="rounded=1;whiteSpace=wrap;html=1;fillColor=#f5f5f5;strokeColor=#666666;fontColor=#333333;" parent="1" vertex="1">
          <mxGeometry x="535" y="222.5" width="125" height="35" as="geometry" />
        </mxCell>
        <mxCell id="yWOQ8LxlVADgonX8agsK-5" value="&lt;b&gt;crm_prd_info&lt;/b&gt;" style="rounded=1;whiteSpace=wrap;html=1;fillColor=#f5f5f5;strokeColor=#666666;fontColor=#333333;" parent="1" vertex="1">
          <mxGeometry x="535" y="310" width="125" height="35" as="geometry" />
        </mxCell>
        <mxCell id="yWOQ8LxlVADgonX8agsK-6" value="erp_loc_a101" style="rounded=1;whiteSpace=wrap;html=1;fillColor=#f5f5f5;strokeColor=#666666;fontStyle=1;fontColor=#333333;" parent="1" vertex="1">
          <mxGeometry x="535" y="412.5" width="125" height="35" as="geometry" />
        </mxCell>
        <mxCell id="yWOQ8LxlVADgonX8agsK-7" value="erp_cust_az12" style="rounded=1;whiteSpace=wrap;html=1;fillColor=#f5f5f5;strokeColor=#666666;fontStyle=1;fontColor=#333333;" parent="1" vertex="1">
          <mxGeometry x="535" y="370" width="125" height="35" as="geometry" />
        </mxCell>
        <mxCell id="yWOQ8LxlVADgonX8agsK-8" value="erp_px_cat_g1v2" style="rounded=1;whiteSpace=wrap;html=1;fillColor=#f5f5f5;strokeColor=#666666;fontStyle=1;fontColor=#333333;" parent="1" vertex="1">
          <mxGeometry x="535" y="457.5" width="125" height="35" as="geometry" />
        </mxCell>
        <mxCell id="z4UjQp8oaX0LZlAY_rJ--1" value="" style="rounded=1;whiteSpace=wrap;html=1;dashed=1;fillColor=none;strokeColor=#d6b656;" parent="1" vertex="1">
          <mxGeometry x="750" y="190" width="180" height="350" as="geometry" />
        </mxCell>
        <mxCell id="z4UjQp8oaX0LZlAY_rJ--2" value="&lt;b&gt;Gold Layer&lt;/b&gt;" style="rounded=1;whiteSpace=wrap;html=1;fillColor=#fff2cc;strokeColor=#d6b656;" parent="1" vertex="1">
          <mxGeometry x="760" y="160" width="160" height="30" as="geometry" />
        </mxCell>
        <mxCell id="z4UjQp8oaX0LZlAY_rJ--3" value="&lt;b&gt;dim_customers&lt;/b&gt;" style="rounded=1;whiteSpace=wrap;html=1;fillColor=#fff2cc;strokeColor=#d6b656;" parent="1" vertex="1">
          <mxGeometry x="777.5" y="306.85" width="125" height="35" as="geometry" />
        </mxCell>
        <mxCell id="z4UjQp8oaX0LZlAY_rJ--4" value="&lt;b&gt;fact_sales&lt;/b&gt;" style="rounded=1;whiteSpace=wrap;html=1;fillColor=#fff2cc;strokeColor=#d6b656;" parent="1" vertex="1">
          <mxGeometry x="777.5" y="222.5" width="125" height="35" as="geometry" />
        </mxCell>
        <mxCell id="z4UjQp8oaX0LZlAY_rJ--5" value="&lt;b&gt;dim_products&lt;/b&gt;" style="rounded=1;whiteSpace=wrap;html=1;fillColor=#fff2cc;strokeColor=#d6b656;" parent="1" vertex="1">
          <mxGeometry x="790" y="377.5" width="125" height="35" as="geometry" />
        </mxCell>
        <mxCell id="z4UjQp8oaX0LZlAY_rJ--14" value="" style="endArrow=classic;html=1;rounded=0;entryX=0;entryY=0.5;entryDx=0;entryDy=0;exitX=1;exitY=0.5;exitDx=0;exitDy=0;" parent="1" source="yWOQ8LxlVADgonX8agsK-4" target="z4UjQp8oaX0LZlAY_rJ--4" edge="1">
          <mxGeometry width="50" height="50" relative="1" as="geometry">
            <mxPoint x="680" y="160" as="sourcePoint" />
            <mxPoint x="730" y="110" as="targetPoint" />
          </mxGeometry>
        </mxCell>
        <mxCell id="Y5Jmz7DnxfLOfs1B6Due-1" value="" style="endArrow=classic;html=1;rounded=0;exitX=1;exitY=0.5;exitDx=0;exitDy=0;entryX=0;entryY=0.5;entryDx=0;entryDy=0;" edge="1" parent="1" source="yWOQ8LxlVADgonX8agsK-7" target="z4UjQp8oaX0LZlAY_rJ--3">
          <mxGeometry width="50" height="50" relative="1" as="geometry">
            <mxPoint x="670" y="400" as="sourcePoint" />
            <mxPoint x="720" y="350" as="targetPoint" />
          </mxGeometry>
        </mxCell>
        <mxCell id="Y5Jmz7DnxfLOfs1B6Due-3" value="" style="endArrow=classic;html=1;rounded=0;exitX=1;exitY=0.5;exitDx=0;exitDy=0;entryX=0;entryY=0.5;entryDx=0;entryDy=0;" edge="1" parent="1" source="yWOQ8LxlVADgonX8agsK-6" target="z4UjQp8oaX0LZlAY_rJ--3">
          <mxGeometry width="50" height="50" relative="1" as="geometry">
            <mxPoint x="670" y="440" as="sourcePoint" />
            <mxPoint x="720" y="390" as="targetPoint" />
          </mxGeometry>
        </mxCell>
        <mxCell id="Y5Jmz7DnxfLOfs1B6Due-4" value="" style="endArrow=classic;html=1;rounded=0;exitX=1;exitY=0.5;exitDx=0;exitDy=0;entryX=0;entryY=0.5;entryDx=0;entryDy=0;" edge="1" parent="1" source="yWOQ8LxlVADgonX8agsK-8" target="z4UjQp8oaX0LZlAY_rJ--5">
          <mxGeometry width="50" height="50" relative="1" as="geometry">
            <mxPoint x="680" y="510" as="sourcePoint" />
            <mxPoint x="730" y="460" as="targetPoint" />
          </mxGeometry>
        </mxCell>
      </root>
    </mxGraphModel>
  </diagram>
</mxfile>
